<?xml version="1.0" standalone="no"?>
<!DOCTYPE svg PUBLIC "-//W3C//DTD SVG 20010904//EN"
 "http://www.w3.org/TR/2001/REC-SVG-20010904/DTD/svg10.dtd">
<svg version="1.0" xmlns="http://www.w3.org/2000/svg"
 width="1024.000000pt" height="1024.000000pt" viewBox="0 0 1024.000000 1024.000000"
 preserveAspectRatio="xMidYMid meet">

<g transform="translate(0.000000,1024.000000) scale(0.100000,-0.100000)"
fill="#000000" stroke="none">
<path d="M4249 9106 c-97 -26 -185 -99 -228 -190 -12 -24 -100 -441 -215
-1018 -108 -537 -196 -979 -196 -982 0 -3 -26 4 -57 15 -274 95 -595 96 -856
3 -179 -65 -335 -163 -475 -298 -203 -196 -329 -428 -383 -706 -28 -143 -30
-349 -6 -486 105 -586 585 -1019 1177 -1061 87 -6 89 -7 101 -36 18 -44 107
-130 160 -155 33 -16 210 -53 590 -123 299 -55 704 -129 899 -165 1080 -198
1506 -274 1544 -274 54 0 138 25 185 54 51 32 119 110 141 159 14 33 400 1910
400 1947 0 5 16 2 36 -6 146 -61 313 -23 472 106 34 28 62 47 62 41 0 -25 -60
-175 -91 -228 -43 -73 -199 -230 -262 -263 -80 -42 -96 -36 342 -125 151 -31
281 -53 289 -50 12 4 11 10 -4 33 -97 147 -134 256 -141 413 -3 64 -3 133 1
154 l7 37 28 -58 c101 -212 311 -317 510 -255 257 80 379 352 268 595 -53 116
-172 205 -301 226 -54 9 -134 3 -216 -16 -23 -5 -22 -2 10 23 136 108 200 227
200 373 0 154 -103 311 -248 378 -50 23 -70 26 -162 26 -97 1 -110 -1 -170
-30 -76 -36 -129 -79 -171 -141 -95 -137 -93 -355 4 -497 14 -22 25 -42 23
-44 -2 -2 -26 8 -53 21 -68 35 -152 58 -217 60 -31 1 -56 4 -56 6 0 3 77 390
171 860 131 657 170 867 165 903 -13 117 -111 234 -229 274 -23 7 -319 61
-657 119 -569 98 -1507 260 -2055 355 -249 43 -267 45 -336 26z m260 -150
c122 -22 358 -63 1211 -211 140 -24 542 -94 893 -155 351 -60 651 -117 666
-124 62 -33 111 -115 111 -188 0 -26 -849 -4270 -871 -4351 -21 -80 -82 -136
-170 -156 -50 -11 19 -23 -1789 309 -393 72 -821 151 -951 174 -129 24 -251
51 -271 60 -32 15 -100 76 -86 76 25 0 175 34 228 51 335 111 623 358 775 664
156 315 186 648 89 983 -83 286 -299 570 -553 727 -43 27 -60 43 -56 54 2 9
92 456 200 994 107 538 202 991 210 1007 19 36 81 88 120 99 50 15 101 12 244
-13z m-1379 -2221 c0 -148 4 -143 -132 -169 -48 -9 -113 -26 -144 -36 -101
-35 -107 -32 -144 63 -49 127 -57 166 -40 177 61 37 282 88 393 89 l67 1 0
-125z m731 -151 c72 -61 132 -126 189 -207 34 -48 34 -49 15 -63 -43 -32 -206
-115 -219 -112 -24 5 -256 237 -256 256 0 9 32 63 71 120 l71 103 30 -19 c16
-11 61 -46 99 -78z m-1588 -294 c54 -36 100 -74 103 -85 3 -12 -12 -58 -39
-115 -24 -52 -52 -120 -62 -150 -28 -87 -25 -86 -167 -71 -68 7 -126 16 -130
20 -9 8 29 150 61 229 40 100 120 245 131 239 3 -1 49 -31 103 -67z m1971
-608 c14 -8 -2 -160 -28 -257 -40 -146 -65 -207 -84 -200 -130 47 -207 83
-219 101 -13 20 -12 31 11 102 14 44 32 117 39 163 19 110 22 112 162 104 61
-4 114 -10 119 -13z m-1924 -384 c24 -40 65 -102 92 -137 29 -39 48 -74 48
-90 0 -20 -22 -48 -88 -114 l-89 -88 -46 51 c-86 95 -213 316 -205 356 3 18
177 93 219 93 22 1 33 -11 69 -71z m1112 -430 c15 -12 98 -211 98 -235 0 -13
-121 -55 -220 -77 -106 -24 -230 -31 -241 -15 -5 8 -9 69 -9 136 0 144 2 146
110 157 36 4 97 15 135 25 87 23 107 24 127 9z"/>
<path d="M4405 8433 c-126 -251 -143 -278 -166 -281 -22 -3 -28 -10 -32 -35
-3 -18 -2 -35 2 -39 10 -11 175 -38 182 -30 4 4 10 21 13 38 6 28 4 32 -18 38
l-24 6 30 55 c19 36 36 55 48 55 18 0 162 -28 166 -33 1 -1 5 -30 9 -65 7 -62
7 -64 -16 -60 -19 2 -25 -3 -33 -30 -5 -18 -6 -35 -3 -38 9 -9 196 -42 202
-36 3 3 5 21 5 40 0 25 -5 35 -19 39 -13 3 -21 17 -25 46 -7 48 -56 542 -56
563 0 17 -27 29 -85 38 l-40 7 -140 -278z m194 -105 c1 -18 -3 -26 -11 -23 -7
2 -39 9 -70 15 l-58 11 57 112 58 112 11 -100 c7 -55 13 -112 13 -127z"/>
<path d="M4426 7922 c-17 -19 -55 -52 -85 -75 -127 -91 -181 -162 -181 -236 0
-55 32 -90 88 -98 35 -5 49 -1 73 16 16 12 29 19 29 17 0 -3 -21 -35 -46 -71
-26 -36 -45 -67 -43 -69 5 -4 163 -35 166 -32 3 3 -25 140 -33 161 -5 12 6 6
28 -17 42 -45 89 -51 131 -18 63 50 57 119 -28 291 -30 61 -55 119 -55 128 0
36 -16 37 -44 3z"/>
<path d="M5567 7731 c-55 -121 -275 -322 -701 -640 -194 -145 -302 -247 -355
-335 -116 -194 -131 -408 -41 -593 53 -107 162 -186 295 -213 136 -28 266 15
429 141 l29 23 -7 -30 c-14 -59 -116 -251 -168 -315 -62 -77 -143 -149 -210
-187 -27 -15 -48 -32 -48 -39 0 -13 -6 -12 375 -84 288 -54 365 -66 365 -54 0
4 -20 39 -45 79 -56 90 -97 183 -120 266 -18 71 -34 340 -19 340 5 0 22 -28
39 -62 41 -85 132 -180 209 -218 156 -77 348 -39 482 95 108 107 153 231 154
418 0 188 -42 295 -236 592 -129 199 -195 313 -263 456 -53 111 -116 287 -127
357 -4 23 -9 42 -13 42 -3 0 -14 -18 -24 -39z"/>
<path d="M6231 5404 c-33 -27 -53 -80 -44 -115 6 -21 5 -21 -20 -4 -76 49
-171 -61 -144 -165 17 -66 85 -113 132 -92 23 11 24 10 19 -17 -6 -27 6 -89
28 -144 l11 -27 43 40 c24 22 81 58 126 80 105 50 123 74 123 158 0 59 -2 66
-33 93 -18 16 -44 29 -58 29 -24 0 -24 1 -10 22 9 12 16 35 16 51 0 97 -116
153 -189 91z"/>
<path d="M5926 4794 c-12 -32 -6 -66 13 -71 21 -5 20 6 39 -468 l7 -180 65
-12 c36 -6 67 -8 71 -5 3 4 67 136 144 294 116 240 142 287 158 285 21 -2 43
42 34 67 -5 12 -184 52 -194 43 -2 -3 -7 -21 -10 -41 -5 -32 -3 -38 16 -43 12
-3 20 -11 17 -17 -39 -94 -50 -114 -60 -111 -6 2 -44 9 -83 15 l-73 12 0 68
c0 64 1 68 21 63 26 -7 39 11 39 53 l0 31 -93 16 c-113 20 -104 20 -111 1z
m262 -349 c2 -2 -22 -56 -52 -121 l-56 -119 0 90 c0 50 -3 107 -7 128 l-6 39
59 -7 c32 -4 60 -9 62 -10z"/>
<path d="M3381 8648 c-125 -20 -243 -118 -308 -258 l-37 -77 -37 47 c-49 62
-103 103 -186 143 -62 29 -77 32 -163 32 -87 0 -101 -3 -161 -32 -80 -39 -150
-111 -187 -191 -24 -51 -27 -69 -27 -163 0 -102 1 -107 39 -183 68 -138 206
-263 551 -501 79 -55 168 -127 226 -185 l96 -95 21 45 c31 68 130 210 246 355
163 205 262 368 317 525 18 51 23 87 24 170 0 99 -2 109 -33 172 -72 146 -220
222 -381 196z"/>
<path d="M3069 3305 c-20 -7 -62 -18 -93 -24 -31 -6 -81 -16 -112 -22 l-55
-11 3 -41 c3 -39 5 -42 30 -39 19 2 35 -5 53 -22 l26 -26 -3 -499 c-3 -470 -4
-500 -22 -519 -10 -12 -32 -22 -50 -24 -30 -3 -31 -5 -31 -48 l0 -45 215 0
215 0 0 45 c0 42 -2 45 -27 48 -49 6 -58 33 -58 168 0 106 2 123 19 138 18 16
23 11 131 -141 61 -87 126 -181 143 -210 l32 -52 148 -1 148 0 -3 47 c-3 43
-6 48 -33 55 -17 4 -44 22 -61 40 -33 36 -292 390 -300 412 -5 13 176 183 231
217 17 11 47 19 68 19 l37 0 0 45 0 45 -185 0 -185 0 0 -45 c0 -42 2 -45 28
-45 15 0 33 -4 40 -9 30 -19 4 -57 -125 -179 l-133 -125 0 420 c0 312 -3 422
-12 431 -15 15 -33 14 -79 -3z"/>
<path d="M930 3156 c0 -43 1 -44 38 -50 21 -3 47 -15 58 -27 18 -20 19 -42 19
-486 l0 -465 -28 -24 c-16 -14 -41 -24 -58 -24 -28 0 -29 -1 -29 -50 l0 -50
263 2 262 3 0 45 0 45 -50 6 c-27 3 -58 9 -67 13 -29 13 -38 65 -38 217 l0
149 93 0 c279 1 453 117 487 325 20 125 -29 256 -122 323 -104 74 -215 92
-585 92 l-243 0 0 -44z m560 -88 c81 -34 130 -123 130 -235 0 -91 -18 -142
-69 -193 -53 -52 -100 -70 -190 -70 l-61 0 0 261 0 262 78 -5 c42 -3 93 -12
112 -20z"/>
<path d="M5842 3098 c-43 -57 -174 -228 -290 -381 l-212 -277 0 -64 c0 -58 2
-64 23 -70 12 -3 129 -6 261 -6 l238 0 -3 -84 c-5 -100 -19 -122 -85 -132
l-44 -6 0 -49 0 -49 250 0 250 0 0 49 0 49 -44 6 c-66 10 -80 32 -85 132 l-3
84 75 0 75 0 4 75 3 75 -77 0 -78 0 0 359 c0 198 -3 366 -6 375 -5 13 -23 16
-89 16 l-84 0 -79 -102z m18 -420 l0 -223 -165 0 c-91 0 -165 1 -165 3 0 5
322 442 326 442 2 0 4 -100 4 -222z"/>
<path d="M6380 3156 c0 -44 0 -44 40 -51 71 -12 70 -5 70 -503 0 -281 -4 -450
-10 -469 -12 -32 -45 -53 -85 -53 -23 0 -25 -4 -25 -50 l0 -50 260 0 260 0 0
49 0 48 -52 6 c-91 11 -92 15 -96 248 l-4 201 110 -4 c127 -4 144 -12 166 -87
13 -45 14 -46 59 -49 l47 -3 0 201 0 201 -47 -3 c-47 -3 -48 -4 -54 -42 -10
-64 -44 -86 -137 -87 -42 -1 -90 -2 -107 -3 l-30 -1 -3 218 -2 217 104 0 c145
0 202 -14 248 -60 24 -24 41 -53 49 -84 l12 -47 44 3 44 3 0 145 0 145 -430 3
-431 2 0 -44z"/>
<path d="M2265 2870 c-160 -32 -273 -124 -328 -264 -25 -66 -34 -223 -17 -308
32 -165 141 -273 317 -314 128 -30 267 -4 375 69 111 76 165 180 175 338 17
253 -106 426 -336 475 -72 15 -124 16 -186 4z m196 -147 c58 -62 74 -128 74
-298 -1 -161 -17 -234 -65 -289 -40 -45 -79 -60 -141 -54 -117 12 -169 111
-169 326 0 123 21 224 59 284 37 58 80 80 150 75 48 -3 58 -8 92 -44z"/>
<path d="M4106 2870 c-175 -31 -309 -180 -335 -372 -21 -154 16 -301 99 -391
152 -166 420 -183 597 -37 68 57 77 74 57 105 -16 24 -18 25 -38 10 -11 -9
-48 -29 -81 -45 -50 -25 -72 -30 -130 -30 -87 0 -138 22 -188 81 -40 46 -64
113 -69 189 l-3 45 257 3 c300 3 285 -3 274 109 -16 155 -95 266 -223 316 -53
21 -153 28 -217 17z m144 -128 c34 -34 50 -87 50 -164 l0 -58 -140 0 -140 0 0
33 c0 62 30 139 70 179 33 33 44 38 85 38 38 0 52 -5 75 -28z"/>
<path d="M4845 2859 c-38 -11 -104 -25 -145 -32 l-75 -12 -3 -42 c-3 -43 -3
-43 32 -43 64 0 66 -9 66 -317 0 -293 -4 -319 -49 -329 -50 -11 -51 -13 -51
-59 l0 -45 228 2 227 3 0 45 0 45 -43 6 c-23 3 -48 11 -55 18 -9 8 -13 77 -15
241 -3 213 -2 231 17 268 46 90 152 109 176 32 7 -22 39 -34 76 -28 21 3 26
14 50 113 17 70 23 114 17 122 -5 7 -33 17 -61 23 -91 20 -185 -25 -246 -116
l-29 -45 -7 68 c-6 69 -14 95 -31 99 -5 1 -40 -7 -79 -17z"/>
<path d="M7425 2849 c-66 -15 -130 -31 -142 -34 -19 -4 -23 -12 -23 -45 0 -39
1 -40 33 -40 22 0 41 -8 53 -21 17 -19 19 -44 24 -298 l5 -276 28 -48 c49 -83
142 -124 261 -115 76 7 140 34 195 83 l41 37 0 -56 0 -56 172 2 171 3 2 30 c4
50 -4 65 -34 65 -15 0 -36 6 -47 14 -18 14 -19 31 -22 389 -2 315 -5 377 -17
387 -12 10 -29 9 -82 -4 -37 -10 -90 -22 -117 -27 -27 -5 -66 -14 -88 -19 -36
-10 -38 -13 -38 -50 0 -37 2 -40 29 -40 16 0 39 -9 52 -19 24 -19 24 -21 27
-255 l4 -236 -34 -30 c-47 -44 -126 -67 -176 -52 -48 15 -81 49 -93 99 -5 21
-9 169 -9 329 0 298 -2 316 -39 313 -9 -1 -70 -14 -136 -30z"/>
<path d="M8594 2874 c-6 -3 -69 -17 -140 -32 l-129 -27 -3 -43 c-3 -40 -2 -42
25 -42 16 0 39 -7 51 -16 22 -15 22 -17 22 -302 0 -315 -2 -327 -58 -334 -25
-3 -27 -7 -30 -50 l-3 -48 216 0 216 0 -3 48 c-3 44 -5 47 -33 50 -65 8 -65 7
-65 298 l0 263 36 29 c89 74 205 64 251 -21 15 -27 18 -65 21 -257 4 -261 -1
-295 -51 -308 -30 -8 -32 -12 -35 -55 l-3 -47 215 0 216 0 0 50 0 50 -34 0
c-63 0 -63 0 -69 312 -3 199 -9 295 -18 323 -20 60 -95 130 -160 149 -71 21
-124 20 -204 -5 -51 -16 -78 -31 -118 -70 -28 -27 -52 -49 -54 -49 -2 0 -3 23
-3 51 0 73 -17 99 -56 83z"/>
</g>
</svg>
